<?xml version="1.0" encoding="iso-8859-1"?>
<!-- Generator: Adobe Illustrator 16.0.0, SVG Export Plug-In . SVG Version: 6.00 Build 0)  -->
<!DOCTYPE svg PUBLIC "-//W3C//DTD SVG 1.1//EN" "http://www.w3.org/Graphics/SVG/1.1/DTD/svg11.dtd">
<svg version="1.1" id="Capa_1" xmlns="http://www.w3.org/2000/svg" xmlns:xlink="http://www.w3.org/1999/xlink" x="0px" y="0px"
	 width="128px" height="128px" viewBox="0 0 128 128" style="enable-background:new 0 0 128 128;" xml:space="preserve">
<g>
	<g>
		<path d="M116,0h-15.074C97.377,0,94.197,1.551,92,4h10.926H114c5.521,0,10,4.478,10,10v11.074V36c2.449-2.197,4-5.377,4-8.926V12
			C128,5.373,122.627,0,116,0z"/>
		<path d="M27.074,0H12C5.373,0,0,5.373,0,12v15.074C0,30.623,1.551,33.803,4,36V25.074V14C4,8.478,8.478,4,14,4h11.074H36
			C33.803,1.551,30.623,0,27.074,0z"/>
		<path d="M124,92v10.926V114c0,5.521-4.479,10-10,10h-11.074H92c2.197,2.449,5.377,4,8.926,4H116c6.627,0,12-5.373,12-12v-15.074
			C128,97.377,126.449,94.197,124,92z"/>
		<path d="M14,124c-5.522,0-10-4.479-10-10v-11.074V92c-2.449,2.197-4,5.377-4,8.926V116c0,6.627,5.373,12,12,12h15.074
			c3.549,0,6.729-1.551,8.926-4H25.074H14z"/>
		<path d="M64,54c-4.841,0-8.878,3.441-9.801,8.01C54.069,62.653,54,63.318,54,64c0,0.781,0.099,1.538,0.269,2.27
			c0.859,3.697,3.765,6.604,7.463,7.463C62.462,73.9,63.219,74,64,74c0.682,0,1.348-0.068,1.99-0.199C70.559,72.878,74,68.841,74,64
			C74,58.478,69.521,54,64,54z M65.254,69.867C64.85,69.953,64.43,70,64,70c-3.313,0-6-2.688-6-6c0-0.43,0.047-0.85,0.133-1.254
			C58.71,60.035,61.117,58,64,58c3.312,0,6,2.687,6,6C70,66.883,67.965,69.29,65.254,69.867z"/>
	</g>
</g>
<g>
</g>
<g>
</g>
<g>
</g>
<g>
</g>
<g>
</g>
<g>
</g>
<g>
</g>
<g>
</g>
<g>
</g>
<g>
</g>
<g>
</g>
<g>
</g>
<g>
</g>
<g>
</g>
<g>
</g>
</svg>
